<svg id="Layer_1" data-name="Layer 1" xmlns="http://www.w3.org/2000/svg" xmlns:xlink="http://www.w3.org/1999/xlink" viewBox="0 0 39.67 107.18"><defs><style>.cls-1{fill:#650b12;}.cls-2{fill:#37190f;}.cls-3{fill:#ed2926;}.cls-4{fill:#e6b497;}.cls-5{fill:#d08d71;}.cls-6{fill:#2f2523;}.cls-7{fill:#008b60;}.cls-8{fill:#455f3e;}.cls-9{fill:#9bc491;}.cls-10{fill:#9f715a;}.cls-11{fill:#473a35;}.cls-12{fill:#f2ddcf;}.cls-13,.cls-14{fill:#fff;}.cls-13{opacity:0.5;}.cls-14{opacity:0.51;}</style><symbol id="MAN01_2" data-name="MAN01 2" viewBox="0 0 29.22 99.31"><path d="M13.55,7c-1,.26-1,.8-1.62-.15a12.28,12.28,0,0,0-2.1-2.55c-.56-.52-1-.92-.37-1.58,1.25-1.27,4.2-.4,5.54.19a3.92,3.92,0,0,1,1.8,1.39c.63,1,0,2-.11,3A7.27,7.27,0,0,0,13.55,7Z"/><path d="M25.08,4.2c-.59.6-.49,1.54-1,1.78a3.16,3.16,0,0,1-1.17.14,8.09,8.09,0,0,1-1.4,0c-1.06,0-1.77.24-1.89-.88C19.37,3.05,18.39,2.13,22,.89A8.89,8.89,0,0,1,23.5.53h-.06c1.07-.2,3.84-1,4.64-.15S26.08,3.18,25.08,4.2Z"/><path class="cls-1" d="M24.42,32.43c-.09,5.45-.08,10.77-.46,16.21-.17,2.41.25,4.67-.15,7-.15.86.08,1.74-.63,2.16-.87.53-3.37.06-4.35,0-2.45,0-4.9-.11-7.35-.19-.76,0-3.52.35-3.95-.11s-.65-3.4-.83-4.09c-1.35-5.1-.52-9.68.5-14.75a148.34,148.34,0,0,0,1.91-15.3,27.58,27.58,0,0,1,1.38-6.67,13.22,13.22,0,0,0,.68-5.06c0-1.45.13-3.1,1.5-3.86a4.87,4.87,0,0,1,3.7,0c.7.57.32,4.33,0,5.75-.59,2.69-.44,5.39-.65,8.12C15.3,27.07,14.23,32.51,15,38c.22,1.54,2.24,7,.91,8.25,1.59-1.16,1.44-5.4,1.73-7.16.64-3.88,1.44-7.73,2.12-11.59.38-2.14-.32-4-.45-6.15-.11-1.87.84-3.49.85-5.31s-1.43-2.83-1-4.53A21,21,0,0,0,20,9.08a13.81,13.81,0,0,0-.36-3c2.2,0,3.19-.74,4.16,1.6a29.5,29.5,0,0,1,1.85,6.89C26.34,20.48,24.52,26.54,24.42,32.43Z"/><path class="cls-2" d="M16.63,8.36c-.09-.52-1.27-.73-1.78-.78a48.27,48.27,0,0,1-.46,5.35A20.06,20.06,0,0,1,13.5,18a11.71,11.71,0,0,0-1.09,4.76c.08,1.85.41,3.67.44,5.53A55.2,55.2,0,0,1,11.7,39c-.35,1.85.26,2.88,1.17,4.44l2.82,4.8c.1-.43.19-.86.26-1.29s.37-.89,0-.58a4.35,4.35,0,0,0,.46-2.5,31,31,0,0,0-.86-3.14,38.78,38.78,0,0,1-.72-7.84c.06-4.18.86-8.27,1-12.43a40.47,40.47,0,0,1,.33-5.83A16.27,16.27,0,0,0,16.63,8.36Z"/><path class="cls-2" d="M26.15,15.07c-.16-2.39-1-4.17-1.41-6.38a5.27,5.27,0,0,0-.71-2,3,3,0,0,1-.43.08h-1A14.43,14.43,0,0,0,23.08,9c1.6,6.64,1,13.59.35,20.39Q22.71,37.27,22,45.12a8.44,8.44,0,0,1-1.09,4.09,7.39,7.39,0,0,1-2.38,2,26.77,26.77,0,0,1-9.66,3.48,103.34,103.34,0,0,0,15.33-.78c.08-.36.16-.7.23-1a44.85,44.85,0,0,0,.52-5.3c.41-5.14.21-10.23.29-15.26C25.31,26.7,26.54,20.8,26.15,15.07Z"/><path class="cls-3" d="M16.9,46.35a4,4,0,0,0,1.2-2.25,20.07,20.07,0,0,0,.41-2.56c.09-.85.12-1.72.29-2.55l.49-2.54,1-5.07.47-2.54a13,13,0,0,0,.3-2.57c0-1.77-.54-3.45-.58-5.13s.87-3.29.82-5.09a7.1,7.1,0,0,0-.81-2.48,3,3,0,0,1-.11-2.43,5.73,5.73,0,0,0,.7-2.48,22.25,22.25,0,0,0-.43-2.55c.07.86.34,1.7.33,2.55a5.49,5.49,0,0,1-.79,2.41,3,3,0,0,0-.25,1.3,4,4,0,0,0,.31,1.29,6.82,6.82,0,0,1,.75,2.4c0,1.68-.87,3.28-.89,5.08s.56,3.44.55,5.13a13,13,0,0,1-.31,2.52l-.46,2.48L19,36.4,18.56,39c-.15.86-.17,1.72-.24,2.58a19.71,19.71,0,0,1-.3,2.55A4,4,0,0,1,16.9,46.35Z"/><path class="cls-3" d="M7.7,53.5a27.24,27.24,0,0,1,0-11.58C8,40,8.49,38.1,8.81,36.17s.58-3.87.8-5.81l.54-5.83A36,36,0,0,1,11,18.77c.22-1,.57-1.84.85-2.79a11.2,11.2,0,0,0,.38-2.92,23.62,23.62,0,0,1,.09-2.92,3.37,3.37,0,0,1,1.34-2.48,3.45,3.45,0,0,0-1.44,2.47A22,22,0,0,0,12,13.05a11.9,11.9,0,0,1-.41,2.86c-.28.92-.66,1.84-.88,2.8a36.56,36.56,0,0,0-.93,5.79l-.58,5.77c-.2,1.94-.43,3.87-.73,5.8s-.72,3.82-1,5.75a34.7,34.7,0,0,0-.57,5.84A21.35,21.35,0,0,0,7.7,53.5Z"/><path class="cls-4" d="M18.37,79.44c-1.22-3.49-5-2.77-7.11-.48-1.17,1.31-2.81,2.79-2.57,4.72a.87.87,0,0,0,.31.59,1.55,1.55,0,0,0,.51.18,2.55,2.55,0,0,1,1.63,2.08,12.43,12.43,0,0,0-.22,2.13c.23,1.09.59.76,1.88.86a10,10,0,0,0,2.64.2c1.11-.26.87-.13,1.09-1.54A13.18,13.18,0,0,1,17.78,84,5.47,5.47,0,0,0,18.37,79.44Z"/><path class="cls-5" d="M18.22,80.36a3.86,3.86,0,0,0-.75-.06c-.85,0-1,.49-.94,1.26.13,5.16-2.5,5.24-2.76,8.07l2.51.2a18.11,18.11,0,0,1,.34-2.56,3.88,3.88,0,0,1,2.66-2.41.48.48,0,0,0,.22-.12.37.37,0,0,0,.06-.21,9.07,9.07,0,0,0-.12-2.94,1.88,1.88,0,0,0-.3-.75A1.36,1.36,0,0,0,18.22,80.36Z"/><ellipse class="cls-5" cx="18.09" cy="91.74" rx="0.79" ry="1.47" transform="translate(-10.49 2.71) rotate(-6.64)"/><path class="cls-5" d="M17.73,90.38a4.61,4.61,0,0,0-3.22-3.75h0c-2-.5-4.32.71-5.13,3.49a33.42,33.42,0,0,0-.31,4.25,3.91,3.91,0,0,0,1.74,3.34,3.72,3.72,0,0,0,1.54.56l.88.14a3.91,3.91,0,0,0,4.47-3.25q0-.11,0-.22A18.69,18.69,0,0,0,17.73,90.38Z"/><path class="cls-4" d="M16.53,89.84a5.1,5.1,0,0,0-2-3.21c-2-.5-4.32.71-5.13,3.49a33.42,33.42,0,0,0-.33,4.25,1.67,1.67,0,0,0,1.36,1.9A4,4,0,0,0,11.9,96a4.47,4.47,0,0,1,1.69-.39c.51.08.75.55,1.26.59,1.05.08,1.58-.83,1.68-1.75A18.7,18.7,0,0,0,16.53,89.84Z"/><path class="cls-6" d="M17.93,95.51h0c-.13.18,0,.39-.09.58a3.31,3.31,0,0,1-1.45,2.07,6.12,6.12,0,0,1-2.75,1.11,1.73,1.73,0,0,1-.75,0A5.86,5.86,0,0,1,10,98h0a3.19,3.19,0,0,1-1.2-2.65h0A5.07,5.07,0,0,1,9,92.89c-.13,0-.24.08-.34,0,.15-.35.68-.35.68-.85a.44.44,0,0,1,.17.35V94a1.24,1.24,0,0,0,.11.62,3.11,3.11,0,0,1,.4,1.4.77.77,0,0,0,.63.82c.26.09.45-.13.71,0a1.67,1.67,0,0,0,1.19-.18,3.4,3.4,0,0,1,1.14-.45h0c.19-.08.21.16.34.19a4.67,4.67,0,0,1,1.59.76.15.15,0,0,0,.21,0c.23-.29.63-.37.84-.67s.32-.37.31-.64a1.22,1.22,0,0,1,.2-.65,2.69,2.69,0,0,0,.44-2,.35.35,0,0,1,.15-.4c.17.09.1.27.16.4s0,.18,0,.26A3.8,3.8,0,0,1,17.93,95.51Z"/><path class="cls-7" d="M27.94,76.59c-.78,5.1-4.49,7.56-9.33,8.49,3.39-3.32-11-3.94-8.92-.57a8.16,8.16,0,0,1-7.06-5A35.58,35.58,0,0,1,1,75.27a18.17,18.17,0,0,1-1-3.61c0-.22,1.35-.28,2.48-.58,1.86-.49,1.65-.19,3.09-1.78.79-.87,1.21-6.84,1.38-8.61.09-.94-.72-6.49-.25-7.15.75-1.07,2.05,1.1,2.31,1.27.44.28,3,0,3.5,0a52.21,52.21,0,0,0,6.84-.4c1.27-.17,3.15-.85,4.28,0,2.7,2,2.07,8.21,1.62,11-.18,1.13-1.59,4.71-.88,5.6.56.69,3.54.54,4.34.55C28.45,73.27,28.2,74.91,27.94,76.59Z"/><path class="cls-8" d="M25.71,64.14c0-1.91-1.37-3.73-2.3-5.33-.51-.88-1.11-1.7-1.7-2.53-.31-.44-.63-.89-.92-1.35-.41-.65-.4-.67-1.18-.55a50.22,50.22,0,0,1-7,.43H10.69a5.63,5.63,0,0,1-1.64,0c-.39-.31-.47-1.52-.75-2-.76-1.23-2.92-2.53-2.57-.18a48.72,48.72,0,0,1,.68,8.5c-.24,2.4-.92,7-1.07,8.06a2,2,0,0,1-.21.85c-.22.34-.76.38-.93.62-.36.53.52,2.69.75,3.42a27.55,27.55,0,0,0,1.5,3.7c-.45-.87-.3-2.51-.35-3.38a17.86,17.86,0,0,1,.13-3.8,9.09,9.09,0,0,1,1.12-3.26c.18-.3.6-.66.63-1s-.44-.76-.51-1.2c-.17-1,.94-1.85,1-2.88a9.39,9.39,0,0,0-.91-3.44C7,57.27,6.39,54.27,9,54.77c4.51.79,9.5,2.34,12.26,6.35,1.32,1.93,1,4,1.52,6.15.37,1.51-.33,2.24-.54,3.67a6.69,6.69,0,0,0,.89,3.62c-.23-1.92.71-3.66,1.43-5.38A13.09,13.09,0,0,0,25.71,64.14Z"/><path class="cls-8" d="M28.71,71.54h-.4a7.53,7.53,0,0,1-1.42-.09v.12c-.24,1.25-.55,2.49-.85,3.72a18.47,18.47,0,0,1-1.45,4.24c-1.13,2.09-3,3.62-4.72,5.28C23,84,26.22,82.4,27.4,79.14A12.81,12.81,0,0,0,28,76.6C28.2,74.91,28.45,73.27,28.71,71.54Z"/><path class="cls-4" d="M29.06,67.08a24.35,24.35,0,0,1-.75,4.45.07.07,0,0,1-.08.07,12.61,12.61,0,0,1-1.37,0A11.3,11.3,0,0,1,23.94,71a14.15,14.15,0,0,1,.52-2.73,7,7,0,0,0,.65-2.51,8.68,8.68,0,0,0-.17-1.37,29.48,29.48,0,0,0-1-3.94,9.11,9.11,0,0,0-1.81-2.83c-.8-.87-2-1.23-2.86-2.08-.14-.14-.6-.52-1-.92s-.68-.77-.62-1c.4-1.42,1.79.52,2.27.6a1.59,1.59,0,0,0,.37,0,11,11,0,0,0,1.56-.31l.21-.06c.58-.15,1.17-.27,1.76-.4.34-.07,2.42,4.53,2.72,5s2.33,4.86,2.46,4.86A9.61,9.61,0,0,1,29.06,67.08Z"/><path class="cls-5" d="M29.06,67.08a24.35,24.35,0,0,1-.75,4.45,4.38,4.38,0,0,1-1.45,0,19.73,19.73,0,0,0,.33-6.08,17,17,0,0,0-1.65-5.18,33.82,33.82,0,0,0-1.9-3.37A24,24,0,0,1,22,54a1.42,1.42,0,0,1-.08-.18l.21-.06c.58-.15,1.17-.27,1.76-.4.34-.07,2.42,4.53,2.72,5s2.26,4.89,2.39,4.89A9.61,9.61,0,0,1,29.06,67.08Z"/><path class="cls-4" d="M5,45a3.2,3.2,0,0,1,.7.77c.66,1.1-.28,2.67-.48,3.8-.58,3.18-1.24,6.11-.85,9.31A70.29,70.29,0,0,1,5,68.27c-.07,3-1.54,2.48-4,3.09C.79,69,.92,60,1.14,57.79c.4-4.12,1.71-8.16,1.65-12.32a.91.91,0,0,1,.27-.76,1.24,1.24,0,0,1,.83-.19,1.85,1.85,0,0,1,.58.09,1.74,1.74,0,0,1,.36.24Z"/><path class="cls-5" d="M6.42,44.16C5.16,44,4.24,49.36,4,50.27a34,34,0,0,0-.9,7.5c0,2.93,0,5.81.27,8.73.06.84-.16,3.51.58,4.06,1.82,1.33,1.41-3,1.36-3.71-.15-2.24-.23-4.36-.53-6.58A30.24,30.24,0,0,1,5,51C5.21,50.19,7.25,44.27,6.42,44.16Z"/><path class="cls-9" d="M8.1,83.56a7.67,7.67,0,0,1-2.86-2.05,11.28,11.28,0,0,1-1.81-3c-.49-1.08-.85-2.23-1.27-3.35s-.88-2.25-1.23-3.4a34.28,34.28,0,0,0,1,3.51,32.67,32.67,0,0,0,1.17,3.41,10.52,10.52,0,0,0,1.93,3A6.58,6.58,0,0,0,8.1,83.56Z"/><path class="cls-5" d="M18.61,85.08l.29-.28a2.5,2.5,0,0,0,.21-.35.9.9,0,0,0,0-.83,2.73,2.73,0,0,0-1.35-1A11.1,11.1,0,0,0,14.59,82a12.42,12.42,0,0,0-3.21.28A4,4,0,0,0,9.89,83a1.12,1.12,0,0,0-.41.72,1.14,1.14,0,0,0,.25.76,1.16,1.16,0,0,1-.14-.74.9.9,0,0,1,.43-.58,3.68,3.68,0,0,1,1.43-.53,13.08,13.08,0,0,1,3.13-.18,12.29,12.29,0,0,1,3.08.48,2.52,2.52,0,0,1,1.28.76A1.17,1.17,0,0,1,18.61,85.08Z"/><path class="cls-5" d="M5.36,68.38a4.83,4.83,0,0,1-.42,1.41,1.63,1.63,0,0,1-1,.81,9.44,9.44,0,0,1-1.44.33A8.52,8.52,0,0,0,1,71.36l1.49-.09A8.3,8.3,0,0,0,4,71a1.85,1.85,0,0,0,1.19-1.06A3.13,3.13,0,0,0,5.36,68.38Z"/><path class="cls-5" d="M28.23,71.6c-.73-.2-1.44-.18-2.14-.33s-1.41-.26-2.15-.35a5.63,5.63,0,0,0,2.06.74,5,5,0,0,0,1.1.06A8,8,0,0,0,28.23,71.6Z"/><path class="cls-2" d="M12.36,8.06a5.28,5.28,0,0,1,1-.13h2a3.6,3.6,0,0,1,1,.15,1.91,1.91,0,0,0-1-.45,5.64,5.64,0,0,0-1.08-.1,7.63,7.63,0,0,0-1.07.13A2.44,2.44,0,0,0,12.36,8.06Z"/><path class="cls-10" d="M23.67,6.49a3.74,3.74,0,0,1-2.21.32c-1.06,0-1.77.24-1.89-.89-.25-2.18-1.23-3.1,2.42-4.35,1.27-.43,4.38-1,4.43.89C26.45,3.62,24,4.69,23.67,6.49Zm-7,1.43a7.27,7.27,0,0,0-3.14-.28c-1,.26-1,.8-1.62-.16A12.22,12.22,0,0,0,9.81,5c-.56-.53-1-.92-.37-1.59,1.25-1.27,4.2-.39,5.54.2a4,4,0,0,1,1.8,1.29c.65,1,0,2-.09,3Z"/><path class="cls-11" d="M28,1.05c-.8-.82-3.57,0-4.64.15,1,.33,3.09.55,2,1.76s-3.24,1.63-2.79,3.83A4.07,4.07,0,0,0,24,6.65c.56-.24.46-1.18,1-1.78C26.08,3.85,28.79,1.81,28,1.05Z"/><path class="cls-11" d="M16.92,5.11c-.61-1.33-3.56-2.32-5.6-2.28a2.06,2.06,0,0,0,.63.77c.58.43,1.3.63,1.84,1.09a3.56,3.56,0,0,1,1.06,2.7v.19h.4a2.53,2.53,0,0,1,1.39.69C16.76,7.27,17.39,6.14,16.92,5.11Z"/><path class="cls-4" d="M7.33,40.27c-1,.94-.83,1.3-1.23,2.52a5.23,5.23,0,0,1-1.29,3.9l-2-.42a15.09,15.09,0,0,1,0-2.61A4.6,4.6,0,0,1,5.4,39.88C6,39.53,8.56,39,7.33,40.27Z"/><path class="cls-5" d="M4,42A12.35,12.35,0,0,1,5,40.1a1.54,1.54,0,0,0-.32.17A3,3,0,0,0,4,42Z"/><path class="cls-5" d="M5.79,39.84l.11-.16a1.65,1.65,0,0,0-.49.31,5.19,5.19,0,0,0-.77,1.8C5,41.18,5.5,40.39,5.79,39.84Z"/><path class="cls-5" d="M7,39.48a1.41,1.41,0,0,0-.74.28c-.59.46-.7,1.32-1,2a10.77,10.77,0,0,1,1.41-1.93A4.32,4.32,0,0,1,7,39.48Z"/><path class="cls-5" d="M7.32,41.19C7,41.47,6,44.68,6.09,42.78a7,7,0,0,1-.65,2.67,2.92,2.92,0,0,1-.17.36c-.13.24-.65.79-.14.94.3.08.8.37,1.1.15.66-.51.91-1.49,1.21-2.82C7.53,43.69,8.05,40.52,7.32,41.19Z"/><ellipse class="cls-4" cx="9.24" cy="91.16" rx="1.47" ry="0.79" transform="translate(-82.39 90.19) rotate(-83.61)"/><path class="cls-12" d="M14.71,87.34a3.39,3.39,0,0,0-2.63.11,4.33,4.33,0,0,0-1.92,1.89,5.89,5.89,0,0,0-.47,1.27A7.82,7.82,0,0,0,9.61,92a23,23,0,0,0,.13,2.63L9.92,92a9.91,9.91,0,0,1,.13-1.27,5.37,5.37,0,0,1,.46-1.17,4.19,4.19,0,0,1,1.71-1.8A3.74,3.74,0,0,1,14.71,87.34Z"/></symbol></defs><title>MAN01</title><path class="cls-13" d="M57.27,106.5c0,5.74-10.74,9.77-22.32,9.1C24.86,115,17.6,111,17.6,106.5S24.86,98,34.95,97.4C46.53,96.72,57.27,100.75,57.27,106.5Z" transform="translate(-17.6 -8.49)"/><path class="cls-14" d="M53.6,104.53c0,4.69-8.85,8-18.4,7.42-8.31-.48-14.3-3.78-14.3-7.42s6-6.94,14.3-7.42C44.75,96.56,53.6,99.84,53.6,104.53Z" transform="translate(-17.6 -8.49)"/><g id="Layer_2" data-name="Layer 2"><g id="Layer_1-2" data-name="Layer 1-2"><use width="29.22" height="99.31" transform="matrix(1, 0, 0, -1, 1.23, 99.24)" xlink:href="#MAN01_2"/></g></g></svg>