<svg id="Layer_1" data-name="Layer 1" xmlns="http://www.w3.org/2000/svg" xmlns:xlink="http://www.w3.org/1999/xlink" viewBox="0 0 39.67 107.67"><defs><style>.cls-1{fill:#bc3b33;}.cls-2{fill:#e6b497;}.cls-3{fill:#d08d71;}.cls-4{fill:#fce3ee;}.cls-5{fill:#1b3241;}.cls-6{fill:#f290ac;}.cls-7{fill:#232121;}.cls-8{fill:#5176a3;}.cls-9{fill:#231f20;}.cls-10{fill:#f2ddcf;}.cls-11{fill:#854d31;}.cls-12,.cls-13{fill:#fff;}.cls-12{opacity:0.5;}.cls-13{opacity:0.51;}</style><symbol id="MAN07_2" data-name="MAN07 2" viewBox="0 0 30.55 98"><path class="cls-1" d="M17.32,69.42H11.17s-2.33,11.94.22,14.49c1.09,1.09,5.93-.05,5.93-.05Z"/><rect class="cls-2" x="12.46" y="73.96" width="6.15" height="14.45"/><path class="cls-3" d="M13.16,77.22a11.73,11.73,0,0,1,.63,2.43,7.47,7.47,0,0,0,.8,2.46,4.79,4.79,0,0,0,2.08,1.54,4.51,4.51,0,0,1,1,.67,1.94,1.94,0,0,1,.39.46,1.22,1.22,0,0,0,.42.48c-.3-.29-.34-.76-.67-1.09a4.16,4.16,0,0,0-1-.79,5,5,0,0,1-1.9-1.48C14.07,80.53,14.12,78.66,13.16,77.22Z"/><path class="cls-3" d="M7.45,60.72v.14a12.1,12.1,0,0,1-.17,1.69.73.73,0,0,1-.09.32c-.14.21-.44.23-.69.23a5.68,5.68,0,0,0-.94.06,5.81,5.81,0,0,1-1.57,0,.87.87,0,0,1-.51-.28A1.71,1.71,0,0,1,3.24,62h0c-.12-2,.08-3.77.09-5.71a25.12,25.12,0,0,1,.26-4.83,6.23,6.23,0,0,1,.15-.62c.06-.24.14-.48.22-.71a3.09,3.09,0,0,1,.71.4,6.25,6.25,0,0,1,2,3.37l.15.56A21.18,21.18,0,0,1,7.45,60.72Z"/><path class="cls-2" d="M5.47,60.86v.78a7,7,0,0,1-.1.91.92.92,0,0,1-.1.32c-.14.21-.44.23-.69.23a3.65,3.65,0,0,0-.53,0,.87.87,0,0,1-.51-.28,1.71,1.71,0,0,1-.24-.92h0c-.12-2,.08-3.77.09-5.71a25.12,25.12,0,0,1,.26-4.83A8.52,8.52,0,0,1,4.74,53.8,21.45,21.45,0,0,1,5.47,60.86Z"/><path class="cls-4" d="M30.5,62.09c-1.9,0-2.36,6.22-2.51,7.59-.28,2.58-.12,6.25-1.5,8.55s-3.44,2.58-5.32,4.17c-.76.65-1.46,2.92-2.55,2.76,0,0-.34-1.19-3.08-2.51-1.88-1.57-1-3.52-2.38-5.43-.72,2.16-2.2,4.3-1.77,6.69-1.09-.33-1.13-1.92-2-2.64-.55-.48-.7-.34-1.13-.57-2.7-1.48-3.9-1.56-4.21-5-.26-2.9-.56-5.81-.72-8.72,0-.92-1.06-5-.45-5.7.14-.17,1,.08,2.51.08S7.76,61.1,8,58.9c.21-2.57-1.29-4,2-4.67a33.36,33.36,0,0,1,8.92-.54c1,.09,2.33,0,3.09.84,1.07,1.13.07,1.78.23,2.09.92,1.76,4.46,1.53,5.15,1.52,2.55,0,.71-1,2,.6C29.61,59,30.77,62,30.5,62.09Z"/><path class="cls-5" d="M25.28,30.45c-1,8.82-.4,17.79-2.29,26.55-4.59-.44-10.9-1.63-15.39-.27-.11-2.4-1.7-2.6-3-4.17-1.78-2.17-.14-4.08.31-6.46a49.54,49.54,0,0,0,.44-5.71c.49-7.09,1-14.19,1.28-21.29.09-2,.21-3.9.23-5.86a32.82,32.82,0,0,0-.14-4.09c-.06-.53-1-3.73-.85-4.11C6.29,3.94,9,4,10.3,4.23c2.08.41,2.41,1.31,2.48,3.41.18,5.2.48,10.4.76,15.62.26,4.88,0,10.47,1.32,15.21-.16-.58.63-2.26.78-2.84.54-2.08,1.05-4.16,1.55-6.24A98.92,98.92,0,0,0,19.84,14c.15-1.85.07-3.75.27-5.59.18-1.59-.26-1.42,1.09-2,2.8-1.13,3.25,1.52,3.51,3.71A93.58,93.58,0,0,1,25.28,30.45Z"/><path class="cls-6" d="M20.44,81.33c-1.36,0-2.78.35-4-.14A4.5,4.5,0,0,1,14,78.61a6,6,0,0,0-.58-1.23l-.11.1c.88,1.51.63,3.63,1.88,4.88h0a5.55,5.55,0,0,0,1.35-.1A28.14,28.14,0,0,0,20.44,81.33Z"/><path class="cls-6" d="M13.16,77.3a4.56,4.56,0,0,0,0-.64,6.06,6.06,0,0,1-1.58,2.77A4.52,4.52,0,0,1,8.3,80.7h0l.27.11a3.6,3.6,0,0,0,2.77.19,1.91,1.91,0,0,0,.41-.26Z"/><path class="cls-6" d="M23.1,59.56c.08-.39.54-1.45.72-2.35-.43-.35-4.51-.66-4.51-.66a11.89,11.89,0,0,1,.08,4,14.87,14.87,0,0,0-.55,2.7,16.16,16.16,0,0,0,.31,2.07A6.17,6.17,0,0,1,19,67.87a3.42,3.42,0,0,0-.29,1.53,2.63,2.63,0,0,0,.79,1.26,8.82,8.82,0,0,1,2.23,2.91,10.43,10.43,0,0,1,.58,3.92c.91-5.07-.25-10.59,2-15.2C23.23,62,22.89,60.64,23.1,59.56Z"/><path class="cls-6" d="M28.91,57.63l-1,.5a11.7,11.7,0,0,0,1.2,4.17,12.23,12.23,0,0,1-1.81.43c-1.12,2.89-1,6.09-1.1,9.18s-.73,6.41-2.94,8.57a2.31,2.31,0,0,0-.8,1.22c.24-.12.49-.23.71-.35,1.89-1,3.51-1.87,4.23-4,.89-2.64.92-5.67,1.39-8.4.1-.59.79-6.22,1.69-6.86C30.92,62,29.16,58.11,28.91,57.63Z"/><path class="cls-6" d="M8.25,63.75c-.07-.84.15-3.27-.34-4.45A2.13,2.13,0,0,1,7,61.08a2.71,2.71,0,0,1-1.61.31c.07.55.11,1.06.12,1.36a1.53,1.53,0,0,1-.08.77,1.57,1.57,0,0,1-1.28.65H5.48a.38.38,0,0,1,.21,0,.4.4,0,0,1,.12.2A24.72,24.72,0,0,1,6.19,77.1,7.09,7.09,0,0,0,7.6,73.8,34.25,34.25,0,0,0,8.25,63.75Z"/><path class="cls-6" d="M13.58,56.36c-1.17,6.38-2.05,12.89-1.47,19.35a10.36,10.36,0,0,1,0,3.38c.19-.79.89-1.36,1-2.14a14,14,0,0,0-.24-2.8q-.18-3-.17-6A89.73,89.73,0,0,1,13.58,56.36Z"/><path class="cls-7" d="M21.76,56.79c0-1.25.12-2.54.17-3.79a2.29,2.29,0,0,1,.24-1.14,2.21,2.21,0,0,1,1.28-.8l.53-.17c.74-6.79.57-13.6,1.3-20.44a94.27,94.27,0,0,0,.36-15.76c-.1-1.75.29-7.33-1.63-8.11a2.87,2.87,0,0,0-1-.19,1.21,1.21,0,0,0-.49.34,1.68,1.68,0,0,0-.25,1.13q.24,10.68-.18,21.35a26,26,0,0,1-.91,6.87c-1,3.22-3.25,6.17-3.17,9.55a19.59,19.59,0,0,0,.44,3,41.11,41.11,0,0,1,.53,5.75c0,.65-.14,1.69.38,2.14Z"/><path class="cls-2" d="M28.06,53.84c-.46-1.28-1.08-2.5-1.58-3.77-.37-.92-.65-2.37-1.37-3.08a1.79,1.79,0,0,0-.71-.43,2.51,2.51,0,0,0-1.19-.1,1.17,1.17,0,0,0-.41.1,1,1,0,0,0-.5.71,1.29,1.29,0,0,0,0,.39A4.22,4.22,0,0,0,23,49.29a11.65,11.65,0,0,1,.74,1.88,20.84,20.84,0,0,1,.79,3.75c.07.61-.4,2.63,0,3a1.1,1.1,0,0,0,.69.23,14.86,14.86,0,0,0,2.63.07A1.58,1.58,0,0,0,29,57.68C29.36,57,28.31,54.53,28.06,53.84Z"/><path class="cls-7" d="M14.92,38.43a27.82,27.82,0,0,1-.57-4.59c-.22-2.14-.38-4.29-.52-6.43-.19-2.79-.26-5.6-.49-8.38s-.54-5.53-.65-8.3c-.11-2.5,1.28-6.36-2.33-6.54H9.44a2.49,2.49,0,0,0-.11.29,4.69,4.69,0,0,0,.12,2.1A34.12,34.12,0,0,1,9.9,12.3q.4,17.53.82,35.09A23.94,23.94,0,0,0,14.92,38.43Z"/><path class="cls-7" d="M23.43,54.84a17.75,17.75,0,0,0-2-.43l-2.08-.24C18,54,16.58,54,15.19,53.91s-2.77,0-4.16,0a14.41,14.41,0,0,0-4.07.8A14.42,14.42,0,0,1,11,54c1.39,0,2.77,0,4.16.07s2.76.19,4.13.36l2.06.29a16.19,16.19,0,0,1,2,.48Z"/><path class="cls-7" d="M10,54.14c0,.1.39.78.43,1s.15.89,0,1C9.89,56.42,9.9,54.39,10,54.14Z"/><path class="cls-7" d="M15.18,54.11c0,.1.21.84.21,1s0,.91-.24,1C14.65,56.33,15.08,54.35,15.18,54.11Z"/><path class="cls-8" d="M13.06,46.26a180.91,180.91,0,0,0,6-19.25A84.27,84.27,0,0,0,20.6,17a75.3,75.3,0,0,0,.46-10c-.09,3.36-.41,6.7-.82,10-.21,1.67-.44,3.33-.67,5s-.52,3.3-.89,4.94c-.75,3.27-1.67,6.5-2.62,9.72S14.08,43.07,13.06,46.26Z"/><path class="cls-8" d="M5,51.7a3.52,3.52,0,0,1,.1-2.84,13.8,13.8,0,0,0,1-2.8l.4-5.87.8-11.75.65-11.76c.08-2,.17-3.93.08-5.89A21.85,21.85,0,0,0,6.87,5c1.17,3.79.92,7.77.73,11.67L6.81,28.41,6.14,40.16,5.81,46A13.56,13.56,0,0,1,5,48.83,3.54,3.54,0,0,0,5,51.7Z"/><path class="cls-9" d="M24.88,6.5a4.16,4.16,0,0,1-.07.86c-.12.69-.44,1.3-1.22,1.37a2.79,2.79,0,0,1-.49,0,6.34,6.34,0,0,1-.86-.21,1.5,1.5,0,0,0-.3,0c-.31,0-.59.25-.9.24h0c-.5,0-.81-.56-.91-1h0a31.26,31.26,0,0,0-1-3.79c-.59-1.67-.88-2.83,1.08-3,1-.08,3.61.18,4.32,1S24.89,5.35,24.88,6.5Z"/><path class="cls-9" d="M12.71,5.83a2.58,2.58,0,0,1-.17.49A11.28,11.28,0,0,0,9.34,6a7.17,7.17,0,0,0-1.76.28l-.34.09a2.24,2.24,0,0,1-.68.1.69.69,0,0,1-.24-.05C5.52,6,5,4.32,4.2,3.77A30.52,30.52,0,0,0,1.11,2.4C.11,1.87-.45,1.23.44.47,1.75-.64,5.87.53,7.36.72c1.26.17,2.61.11,3.85.4,1.51.37,1.6.7,1.6,2.26A10.59,10.59,0,0,1,12.71,5.83Z"/><path class="cls-3" d="M28.06,53.84c-.46-1.28-1.08-2.5-1.58-3.77-.37-.92-.65-2.37-1.37-3.08a1.79,1.79,0,0,0-.71-.43A4.09,4.09,0,0,0,24.71,49c.36,1,.72,2.06,1.07,3.09.45,1.28,2,5.35,1.36,6.22.56-.06,1.63-.23,1.86-.63C29.39,57,28.31,54.53,28.06,53.84Z"/><ellipse class="cls-2" cx="10.86" cy="89.55" rx="1.56" ry="0.87" transform="translate(-78.83 79.84) rotate(-76.91)"/><path class="cls-2" d="M18.65,86.22v-.06a4.19,4.19,0,0,0-.81-.82h0a3.33,3.33,0,0,0-.56-.36,3.82,3.82,0,0,0-1.58-.46,4.27,4.27,0,0,0-3.18,1.06A3.8,3.8,0,0,0,11.24,88h0l-.15,1.57-.1.54V91l-.22,2.3a2.64,2.64,0,0,0,2.4,2.86h0l1.45.13,1.16.1a2.69,2.69,0,0,0,3-2.34h0v-.38L19,92.24h0L19,91.7l.07-.8.13-1.34v-.82A3.92,3.92,0,0,0,18.65,86.22Z"/><path class="cls-10" d="M16.13,85a4.49,4.49,0,0,0-2.93.81,4.06,4.06,0,0,0-1.56,2.65c-.17,1-.38,2-.47,3a6.71,6.71,0,0,0,.27,3,8.29,8.29,0,0,1,0-3c.16-1,.36-2,.56-3A3.83,3.83,0,0,1,13.39,86,5,5,0,0,1,16.13,85Z"/><path class="cls-11" d="M17.77,95.89c-.35.4-.24,1.1-.82,1.24a8.21,8.21,0,0,1-1,.55c0,.32-1.14.32-1.34.32a3.79,3.79,0,0,1-1.35-.41L13,97.46c-.68-.34-2.79-.84-2.77-1.68,0-.21-.35-.38-.36-.61s.48-.38.14-.66a1.83,1.83,0,0,0-.3-.18c-.48-.32-.12-.9.09-1.37a1.38,1.38,0,0,0,.11-.3,3.2,3.2,0,0,0,.07-.33,4.34,4.34,0,0,1,.4-1.25h0l.06-.11c.15-.21.39-.17.51-.32h0c.21-.28.27-.76.47-1.07a.39.39,0,0,1,.22-.18h.1v3.54a2.88,2.88,0,0,0,.1.87h0A.68.68,0,0,0,12,94h0a2.43,2.43,0,0,0,1.07.58l.82.3a11.74,11.74,0,0,0,3,.72H17l.07-.11A20,20,0,0,0,18.48,94a3.23,3.23,0,0,0,.12-.44v-.22a5.23,5.23,0,0,1,.12-.55v-.15a.26.26,0,0,1,0-.19v-.1l0-.12h0a.16.16,0,0,1,0,.06.21.21,0,0,1,0,.06h0v.07h0a.29.29,0,0,0,0,.16h0v.17h0a4.26,4.26,0,0,1,.06.5v.53C19.06,94.84,18.45,95.13,17.77,95.89Z"/><path class="cls-3" d="M18.61,86c0,.26.4.37.61,1.6a6.93,6.93,0,0,1,0,1.93c-.09.89-.15,1.77-.25,2.65.16-.26.13.88.13.84-.25,1.4-1.37,3.08-2.77,2.79s-3.75-.81-4.41-2a5,5,0,0,1-.13-2.58,13.12,13.12,0,0,0,0-1.78c.87,1.23-.48,2.89,1,4a5.23,5.23,0,0,0,3.55.74c1.53-.3,1.7-3.18,1.7-4.57s.51-4.56-1.42-4.67c.93.05,1-.09,1-1a3.75,3.75,0,0,1,1.07,1.28S18.61,85.75,18.61,86Z"/><path class="cls-9" d="M19.28,93.78v-.11a.62.62,0,0,0,0-.13v-.26a4.26,4.26,0,0,0-.06-.5h0v-.17h0a.19.19,0,0,0,0-.16h0v-.07h0a.21.21,0,0,0,0-.06.16.16,0,0,0,0-.06h0l0,.12v.1a.29.29,0,0,1,0,.19v.15a2.86,2.86,0,0,1-.12.55c0,.18,0,.15,0,.22a3.23,3.23,0,0,1-.42.41,20,20,0,0,1-1.28,1.58l-.07.11H17A11.74,11.74,0,0,1,14,95h-.27a7.87,7.87,0,0,1-1-.12c.18.6.86.89,1.44,1.18a3.24,3.24,0,0,1,.47.28,1.17,1.17,0,0,1,.61,1.08l-2,.2a3.79,3.79,0,0,0,1.37.41c.2,0,1.38,0,1.38-.32a8.21,8.21,0,0,0,1-.55c.58-.14.47-.84.82-1.24C18.45,95.13,19.06,94.84,19.28,93.78Z"/><path class="cls-2" d="M24.41,44.8c-.88-1.39-3.27,0-3.61,1.26-.46-.41-1.31-1.33-2-1s3.44,3.82,4.33,3.87C26.39,49.08,25.4,46.62,24.41,44.8Z"/><path class="cls-2" d="M22.5,45.5l-.07-.09-.06-.08-.43-.51h0a24.49,24.49,0,0,0-2-2.22.76.76,0,0,0-.38-.17,1.15,1.15,0,0,0-.56.06l.68.86h0l.4.5h0l1,1.32.12.15h0l.22.27.14.19.19.23Z"/><path class="cls-2" d="M21.72,46l-.14-.16-.16-.2a2.33,2.33,0,0,1-.19-.23h0c-.65-.78-1.72-2-2.06-2.33a.67.67,0,0,0-.4-.17h0a1.28,1.28,0,0,0-.49.06h0l2.15,2.71.29.37.06.07,0,.07.26.33Z"/><path class="cls-2" d="M23.47,45.22s-.33-.38-.74-.88c-.65-.77-1.54-1.8-1.85-2.07a.76.76,0,0,0-.38-.17,1.3,1.3,0,0,0-.56.06l2,2.56v0h0l.4.51.09.11.26.33.24-.19.14-.12Z"/><path class="cls-2" d="M24.43,44.78l-.08-.08-.24-.24h0l-.06-.06h0L24,44.33h0c-.62-.64-1.67-1.74-2-2a.77.77,0,0,0-.32-.17h-.2a1.2,1.2,0,0,0-.42.06l1.87,2.18h0l.8.94h0l.67-.5Z"/><path class="cls-3" d="M20.79,46.2l-.06-.07a8.5,8.5,0,0,0-.73-.74A1.6,1.6,0,0,0,19,45h0l0,.1a4.35,4.35,0,0,1,.88.72,1.48,1.48,0,0,0,.91.38Z"/><path class="cls-3" d="M24.41,44.8c-.63-.91-2.13-3-3.4-2.69l1.87,2.18c-.57.2-1.7-2.79-2.94-2.13l2,2.56c-.29.19-1.91-3-3-2.28.29.36,2.36,2.78,2.22,2.94-.37-.44-1.73-2.59-2.5-2.51.36.65,1.56,2.48,2.24,2.71s1-.36,1.5-.26a3.18,3.18,0,0,1,1.45,1.22,3.08,3.08,0,0,1,.49.93c.11.38,0,.79.19,1.16,0,0,0,.06,0,.07h.06C26.59,48.09,25.06,45.76,24.41,44.8Z"/><path class="cls-3" d="M24.49,57.87c.3.37.81.35,1.2.43a9.26,9.26,0,0,0,1.29,0,3,3,0,0,0,1.3-.38c.42-.49,0-.93.11-1.32-.2.37,0,.94-.31,1.08a3.44,3.44,0,0,1-1.09.25,10.2,10.2,0,0,1-1.24,0h-.63A1,1,0,0,1,24.49,57.87Z"/><path class="cls-3" d="M3.16,61.25c.34.09.67.18,1,.24a9.32,9.32,0,0,0,1,.1,5.49,5.49,0,0,0,1.06-.09A1.47,1.47,0,0,0,7.15,61a2.23,2.23,0,0,1-1,.23h-1A13.22,13.22,0,0,0,3.16,61.25Z"/></symbol></defs><title>MAN07</title><path class="cls-12" d="M57.27,106.5c0,5.74-10.74,9.77-22.32,9.1C24.86,115,17.6,111,17.6,106.5S24.86,98,34.95,97.4C46.53,96.72,57.27,100.75,57.27,106.5Z" transform="translate(-17.6 -8)"/><path class="cls-13" d="M53.6,104.53c0,4.69-8.85,8-18.4,7.42-8.31-.48-14.3-3.78-14.3-7.42s6-6.94,14.3-7.42C44.75,96.56,53.6,99.84,53.6,104.53Z" transform="translate(-17.6 -8)"/><g id="Layer_2" data-name="Layer 2"><g id="Layer_1-2" data-name="Layer 1-2"><use width="30.56" height="98" transform="matrix(1, 0, 0, -1, 5.9, 98)" xlink:href="#MAN07_2"/></g></g></svg>