<svg id="Layer_1" data-name="Layer 1" xmlns="http://www.w3.org/2000/svg" viewBox="0 0 500 300"><defs><style>.cls-1,.cls-3{fill:#fff;}.cls-1{opacity:0.6;}.cls-2{opacity:0.9;}.cls-4{fill:#0fab62;}</style></defs><title>PANEL4</title><rect class="cls-1" width="500" height="300" rx="15" ry="15"/><g class="cls-2"><path class="cls-3" d="M102.26,38.25H38.67a3.18,3.18,0,0,0-3.17,3.24V87.91a3.22,3.22,0,0,0,3.17,3.24H64.28V97H58.61a1.57,1.57,0,0,0-1.55,1.58v3a1.57,1.57,0,0,0,1.55,1.58H82.39a1.57,1.57,0,0,0,1.55-1.58v-3A1.57,1.57,0,0,0,82.39,97H76.72V91.14h25.62a3.18,3.18,0,0,0,3.17-3.24V41.49A3.29,3.29,0,0,0,102.26,38.25ZM70.46,87.61a2.26,2.26,0,1,1,2.21-2.26A2.24,2.24,0,0,1,70.46,87.61Zm29.3-7.75H41.17V44H99.76Z" transform="translate(0 0)"/><path class="cls-3" d="M58,72.26a1,1,0,0,0,1.4,0l2.5-2.56a1.06,1.06,0,0,0,0-1.43L55.74,62l6.18-6.32a1.06,1.06,0,0,0,0-1.43l-2.5-2.56a1,1,0,0,0-1.4,0L48.6,61.2a1.06,1.06,0,0,0,0,1.43Z" transform="translate(0 0)"/><path class="cls-3" d="M79.08,69.7l2.5,2.56a1,1,0,0,0,1.4,0l9.42-9.63a1.06,1.06,0,0,0,0-1.43l-9.5-9.56a1,1,0,0,0-1.4,0L79,54.2a1.06,1.06,0,0,0,0,1.43L85.18,62,79,68.27A1.16,1.16,0,0,0,79.08,69.7Z" transform="translate(0 0)"/><path class="cls-3" d="M65.38,73.61h3a.89.89,0,0,0,.88-.68L76.5,51.57a1,1,0,0,0-.88-1.35h-3a.89.89,0,0,0-.88.68L64.5,72.26A1,1,0,0,0,65.38,73.61Z" transform="translate(0 0)"/></g><g class="cls-2"><rect class="cls-4" x="130.5" y="43.75" width="29" height="51"/><rect class="cls-4" x="170.5" y="43.75" width="29" height="51"/><rect class="cls-4" x="210.5" y="43.75" width="29" height="51"/><rect class="cls-4" x="250.5" y="43.75" width="29" height="51"/><rect class="cls-3" x="290.5" y="43.75" width="29" height="51"/><rect class="cls-3" x="330.5" y="43.75" width="29" height="51"/><rect class="cls-3" x="370.5" y="43.75" width="29" height="51"/><rect class="cls-3" x="410.5" y="43.75" width="29" height="51"/></g><g class="cls-2"><path class="cls-3" d="M67.42,166.72c-7.27-7.27-7.27-14.55-3.64-18.18S74.7,144.9,82,152.17s10.67-2.76,9.69-8.45A28.28,28.28,0,1,0,59,176.41C64.66,177.38,74.7,174,67.42,166.72Zm12-33.82a4.11,4.11,0,1,1-5.82,0A4.11,4.11,0,0,1,79.42,132.9Zm-31.27,0a4.11,4.11,0,1,1,0,5.82A4.11,4.11,0,0,1,48.15,132.9Zm-5.46,18.55a4.11,4.11,0,1,1,5.82,0A4.11,4.11,0,0,1,42.69,151.45Zm18.18-18.18a4.11,4.11,0,1,1,5.82,0A4.12,4.12,0,0,1,60.88,133.26ZM48.15,164.17a4.11,4.11,0,1,1,5.82,0A4.11,4.11,0,0,1,48.15,164.17Z" transform="translate(0 0)"/><path class="cls-3" d="M60.05,196.24a17.33,17.33,0,0,1-10.39-3.18.47.47,0,0,1-.18-.52.47.47,0,0,1,.43-.34c2.63-.1,4.93-2,7.14-3.82s4.34-3.57,6.81-3.67a6.06,6.06,0,0,1,5,2.2c1,1.53.62,3.83-.43,5.41C66.88,194.63,63.75,196.1,60.05,196.24Z" transform="translate(0 0)"/><path class="cls-3" d="M73.49,181.25a2.61,2.61,0,0,1-1.82-4.5l30.09-28.54a2.61,2.61,0,1,1,3.59,3.78L75.25,180.53A2.59,2.59,0,0,1,73.49,181.25Z" transform="translate(0 0)"/></g><g class="cls-2"><rect class="cls-4" x="131.5" y="128.75" width="29" height="51"/><rect class="cls-4" x="171.5" y="128.75" width="29" height="51"/><rect class="cls-4" x="211.5" y="128.75" width="29" height="51"/><rect class="cls-4" x="251.5" y="128.75" width="29" height="51"/><rect class="cls-3" x="291.5" y="128.75" width="29" height="51"/><rect class="cls-3" x="331.5" y="128.75" width="29" height="51"/><rect class="cls-3" x="371.5" y="128.75" width="29" height="51"/><rect class="cls-3" x="411.5" y="128.75" width="29" height="51"/></g><g class="cls-2"><path class="cls-3" d="M35.5,214.25v45h70v-45ZM101,254.73H40v-36H101.1v36Z" transform="translate(0 0)"/><path class="cls-3" d="M87.83,236.75a17.48,17.48,0,0,1-9,15.31H98V221.44H78.88A17.32,17.32,0,0,1,87.83,236.75Z" transform="translate(0 0)"/><path class="cls-3" d="M53.17,236.75a17.48,17.48,0,0,1,9-15.31H43v30.61H62.12A17.32,17.32,0,0,1,53.17,236.75Z" transform="translate(0 0)"/><path class="cls-3" d="M79.21,240.1a5.81,5.81,0,0,0-.75-2.09,7.09,7.09,0,0,0-1.91-2,10,10,0,0,0-3.65-1.59c-.33-.08-.58-.17-.83-.25a2.4,2.4,0,0,0-.75-.17v-5.6a2.31,2.31,0,0,1,1.82.92,3.87,3.87,0,0,1,.83,2.17h4.48a10.11,10.11,0,0,0-.66-2.93,5.47,5.47,0,0,0-1.58-2A6,6,0,0,0,74,225.29a9.41,9.41,0,0,0-2.65-.59V222.2H69.42v2.51a10,10,0,0,0-2.74.59,7.07,7.07,0,0,0-2.32,1.34,6.83,6.83,0,0,0-1.66,2.09,6.36,6.36,0,0,0-.58,2.93,5.32,5.32,0,0,0,.58,2.68,4.26,4.26,0,0,0,1.41,1.76,8.36,8.36,0,0,0,2.07,1.17l2.32.75a5.25,5.25,0,0,1,.58.17c.17.08.33.08.41.17V245A4.55,4.55,0,0,1,67,243.69a3.59,3.59,0,0,1-.91-2.84H61.63a9.19,9.19,0,0,0,2.32,5.77,8.24,8.24,0,0,0,5.56,2.17v2.76h1.91v-2.76a9.92,9.92,0,0,0,3.9-.92A8,8,0,0,0,77.72,246,7,7,0,0,0,79,243.94a5.73,5.73,0,0,0,.33-1.76A8.66,8.66,0,0,0,79.21,240.1Zm-9.7-6.44a5.92,5.92,0,0,1-2.16-.92,2.21,2.21,0,0,1-.66-1.67,2.69,2.69,0,0,1,.25-1.17,3.27,3.27,0,0,1,.66-.84,2,2,0,0,1,.91-.5,4.17,4.17,0,0,1,1.08-.17v5.27Zm5,9.45a4.37,4.37,0,0,1-.83.92,4.46,4.46,0,0,1-1.08.59,3.23,3.23,0,0,1-1.16.25v-6.19a7.29,7.29,0,0,1,2.65,1.17,2.23,2.23,0,0,1,.75,1.84A2.58,2.58,0,0,1,74.48,243.11Z" transform="translate(0 0)"/></g><g class="cls-2"><rect class="cls-4" x="131.5" y="210.75" width="29" height="51"/><rect class="cls-4" x="171.5" y="210.75" width="29" height="51"/><rect class="cls-4" x="211.5" y="210.75" width="29" height="51"/><rect class="cls-4" x="251.5" y="210.75" width="29" height="51"/><rect class="cls-4" x="291.5" y="210.75" width="29" height="51"/><rect class="cls-3" x="331.5" y="210.75" width="29" height="51"/><rect class="cls-3" x="371.5" y="210.75" width="29" height="51"/><rect class="cls-3" x="411.5" y="210.75" width="29" height="51"/></g></svg>