<svg id="Layer_1" data-name="Layer 1" xmlns="http://www.w3.org/2000/svg" xmlns:xlink="http://www.w3.org/1999/xlink" viewBox="0 0 39.67 106.24"><defs><style>.cls-1{fill:#311e10;}.cls-2{fill:#e6b497;}.cls-3{fill:none;stroke:#d08d71;stroke-miterlimit:10;stroke-width:0.4px;}.cls-4{fill:#f2ddcf;}.cls-5{fill:#d08d71;}.cls-6{fill:#faefcc;}.cls-7{fill:#aa7456;}.cls-8{fill:#9f715a;}.cls-9{fill:#875b45;}.cls-10{fill:#573429;}.cls-11{fill:#ba976e;}.cls-12{fill:#d7bfa1;}.cls-13{fill:#ed2926;}.cls-14{fill:#d09f76;}.cls-15{fill:#9d1d21;}.cls-16,.cls-19,.cls-20{fill:#fff;}.cls-17{fill:#271214;}.cls-18{fill:#2f2523;}.cls-19{opacity:0.5;}.cls-20{opacity:0.51;}</style><symbol id="WOMAN07_2" data-name="WOMAN07 2" viewBox="0 0 24.17 98.46"><path class="cls-1" d="M10.29,3.24a2.46,2.46,0,0,1-.47,1h0l-.08.09A2,2,0,0,0,8,3a2.38,2.38,0,0,0-.38,0,2.55,2.55,0,0,0-2,1.71,10.37,10.37,0,0,1-.54,1.85,5.52,5.52,0,0,1,.4-4.61,3.65,3.65,0,0,1,.32-.54C6.55.33,7.8-.43,9.11.27A2.73,2.73,0,0,1,10.29,3.24Z"/><path class="cls-1" d="M13.73,6.66c-.08-.47.33-1,.09-1.41a.87.87,0,0,0-.43-.35h0a3,3,0,0,0-2.24,0,8.54,8.54,0,0,1-1.71.73,3.76,3.76,0,0,1,1.33-2.3,8.35,8.35,0,0,1,2.55-1.15h.46c.93,0,1.89.34,2.1,1.1C16.2,4.53,14.84,6.07,13.73,6.66Z"/><path class="cls-2" d="M17.81,77.52c-.13-1.83-13-.76-14.19.63a6.82,6.82,0,0,0-.69,3.93c.83,1.43,3.48,1.55,4.43,3.2,1.08,1.89-.13,3.09,2.35,3.49s2.7-1,2.75-2.82c.06-2.78-.56-2.25,2-3.35C16.65,81.65,18,80.32,17.81,77.52Z"/><path class="cls-3" d="M3.6,80.82C5,78.1,11.26,78.26,15,78.61"/><path class="cls-2" d="M14.28,90.84a7,7,0,0,0-1.87-5,3.37,3.37,0,0,0-.84-.59,2.86,2.86,0,0,0-.86-.26h-.32a2.48,2.48,0,0,0-.77.12,2.68,2.68,0,0,0-.73.34,3.77,3.77,0,0,0-.89.73l-.15.19h0c-.06.07-.11.15-.17.23A6.66,6.66,0,0,0,7,88a8.44,8.44,0,0,0-.5,2.88,7.67,7.67,0,0,0,1.2,4.28,4.39,4.39,0,0,0,1,1.07h0a2.68,2.68,0,0,0,.57.32,2.64,2.64,0,0,0,1.07.23,3.77,3.77,0,0,0,3.19-2.55A8.14,8.14,0,0,0,14.28,90.84Z"/><path class="cls-4" d="M10.1,85.64a4.35,4.35,0,0,0-2.33,2.45,7.41,7.41,0,0,0-.55,3.42,6.75,6.75,0,0,0,1.13,3.27,3.45,3.45,0,0,0,2.93,1.6A3.57,3.57,0,0,1,8.61,94.6a6.63,6.63,0,0,1-1-3.16,7.57,7.57,0,0,1,.43-3.27A4.79,4.79,0,0,1,10.1,85.64Z"/><path class="cls-5" d="M17.81,77.52c-.08-1.07-1.35-1.1-2-.6s-.77,2-1,2.65c-.68,2.32-1.27,1.74-3,2.52-.61.28-.85.4-1.06,1a6.9,6.9,0,0,0-.05,2.35c.29.45,1.17.55,1.52,1.24a9.79,9.79,0,0,1,.85,2.08,11.42,11.42,0,0,1,.29,2.32c-.2,3.14-1.13,4.3-4,5.41,2.09.91,3.81-1,4.47-2.81a8.16,8.16,0,0,0-.62-7,3.89,3.89,0,0,1-1-2.59c0-1.85,1.61-1.38,2.79-1.52C17.5,82.3,18,80,17.81,77.52Z"/><path class="cls-6" d="M19.3,57.39H5S1,86.07,3.6,80.82C5,78.1,11.26,78.26,15,78.61l1.48.16c.77.1,1.23.18,1.23.18l.39-5.09h0l.12-1.57Z"/><path class="cls-2" d="M14.74,5.92c-.85,1.28-2.48,2.27-2.88,3.82a17.38,17.38,0,0,0-.12,2.16V12a2,2,0,0,1-.81,1.37,1.63,1.63,0,0,1-.55.22,3.72,3.72,0,0,1-1.37,0c-.7-.11-1.4-.26-2.09-.44A1.57,1.57,0,0,1,6,12.68a1.59,1.59,0,0,1-.25-.74,41.5,41.5,0,0,1-.64-4.27C5,6.31,4.53,3.78,5.8,2.78a2.85,2.85,0,0,1,1.82-.41,6.79,6.79,0,0,1,.78,0,1.78,1.78,0,0,1,1.07.47,2.53,2.53,0,0,1,.46,1.82l.22-.12.94-.5a4.92,4.92,0,0,1,2.35-.77,1.87,1.87,0,0,1,1.6.92,1,1,0,0,1,.14.52A2.1,2.1,0,0,1,14.74,5.92Z"/><path class="cls-5" d="M10.13,4.56l-.22.12a2.53,2.53,0,0,0-.46-1.82,1.78,1.78,0,0,0-1.07-.47,12.92,12.92,0,0,0-1,6.25,2.53,2.53,0,0,0,.32,1.3,1.23,1.23,0,0,0,1.36.39A14.59,14.59,0,0,1,9.15,7a6.46,6.46,0,0,1,.68-2Z"/><path class="cls-5" d="M15.16,4.73A1,1,0,0,0,15,4.21c-.41.31-1,.55-1.38.87a10,10,0,0,0-1.92,2.69c-.63.91-1.82,1.69-2.8,1.16.05.47.09.94.13,1.4a.55.55,0,0,0,.26.53c.19.08.41-.07.61-.14a1.18,1.18,0,0,1,1.14.39c.25.24.44.53.68.79a17.38,17.38,0,0,1,.12-2.16c.4-1.55,2-2.54,2.88-3.82A2.1,2.1,0,0,0,15.16,4.73Z"/><path class="cls-7" d="M10.29,3.67a2.46,2.46,0,0,1-.47,1h0l-.08.09A2,2,0,0,0,8,3.44a2.38,2.38,0,0,0-.38,0,2.55,2.55,0,0,0-2,1.71A10.37,10.37,0,0,1,5.08,7a5.52,5.52,0,0,1,.4-4.61,3.65,3.65,0,0,1,.32-.54C6.55.79,7.8,0,9.11.73A2.73,2.73,0,0,1,10.29,3.67Z"/><path class="cls-7" d="M13.73,7.09c-.08-.47.33-1,.09-1.41a.87.87,0,0,0-.43-.35h0a3,3,0,0,0-2.24,0,8.54,8.54,0,0,1-1.71.73,3.76,3.76,0,0,1,1.33-2.3,8.35,8.35,0,0,1,2.55-1.15h.46c.93,0,1.89.34,2.1,1.1C16.2,5,14.84,6.5,13.73,7.09Z"/><path class="cls-8" d="M19.49,60.53c-.57.22-2.85-.71-3.51-.83a30.43,30.43,0,0,0-4.66-.48,29.2,29.2,0,0,0-4.67.22c-2,.26-1.93.32-2.63-1.65-2-5.73.44-12.54,1.69-18.35.64-2.94,1.59-6,1.6-9S6.08,24.84,5.64,22s-.43-6-.73-8.92c-.17-1.65-.59-1.87,1-2.66s1.81-.32,3.2-.26c.15.66.49.7,1,.15a1.67,1.67,0,0,1,1.4,0c.76.4.86,1.37,1.1,2.09a26.41,26.41,0,0,1,1,4.83c.59,4.15,1.8,7.9,2,12.15.25,5.82,1.91,11.78,3.09,17.51C19,48.44,22,59.55,19.49,60.53Z"/><path class="cls-9" d="M20.2,57.14c-.28-5.5-1.63-10.85-2.59-16.26-.44-2.48-1.19-4.86-1.68-7.32-.46-2.29-.26-4.66-.46-7a19.8,19.8,0,0,0-1.13-5A30.18,30.18,0,0,1,13.43,16a16.71,16.71,0,0,0-.87-3.93c-.27-.65-.32-1.43-1-1.8-1.16-.6-1.58.76-2.42-.1.86,7.26,4,14.26,4.75,21.44.36,3.48-1.15,7.13-1.48,10.61-.19,2,.78,7.76-2,8.45l4.12.19c-1.28-.82.2-3.17.34-4.2.24-1.76-.33-3.55-.54-5.29-.44-3.72.13-7.46-.22-11.18-.34-3.55-1.61-6.93-2.43-10.38-.42-1.74-.77-3.5-1.07-5.27-.16-.93-1.31-4.54.57-3.42.91.53.93,3.26,1.13,4.2.4,1.85.79,3.7,1.14,5.56a117.26,117.26,0,0,1,1.71,11.78c.31,3.6.9,7,1.55,10.57a33,33,0,0,1,.52,5.61,12.29,12.29,0,0,1,0,2.27c-.28,1.58-.33,1.22-1.94,1.65a9.47,9.47,0,0,1,1.29,2.46c-1.44.21-2.29-.21-1.93,1.4a22.84,22.84,0,0,0-9.47,2.5c.46,1,3.82.1,5,.08a29.86,29.86,0,0,1,6.4.61c1.17.24,2.4,1.09,3.22.26C20.19,59.65,20.23,57.73,20.2,57.14Z"/><path class="cls-10" d="M9.09.71C7.82,0,6.53.77,5.78,1.83c.27-.14.51-.34.78-.5a1.23,1.23,0,0,1,1.18-.15,1,1,0,0,1,.45.75,2.33,2.33,0,0,1-.12.9A1.41,1.41,0,0,0,8,3.32a.25.25,0,0,0,0,.12A2,2,0,0,1,9.75,4.83l.08-.09h0c.15-.35.31-.7.47-1A2.73,2.73,0,0,0,9.09.71Z"/><path class="cls-10" d="M15.85,3.62c-.21-.76-1.17-1.1-2.1-1.1h0a1.09,1.09,0,0,1,.36,1.34c-.16.47-.5.87-.71,1.33a.49.49,0,0,1,0,.11h0a.87.87,0,0,1,.43.35c.24.42-.17.94-.09,1.41C14.84,6.5,16.2,5,15.85,3.62Z"/><path class="cls-11" d="M6,59.78a16.66,16.66,0,0,1-1.6-5.92,12.1,12.1,0,0,1,.37-3c.19-1,.36-2,.59-3L7.91,35.68a22.84,22.84,0,0,0,.7-6.17A12.14,12.14,0,0,0,8,26.44c-.29-1-.56-2-.78-3a59.23,59.23,0,0,1-.83-6.12c-.06-.51-.13-1-.18-1.53s0-1-.06-1.54a8.78,8.78,0,0,0-.41-3.06,9,9,0,0,1,.32,3.06V15.8c0,.55.09,1,.14,1.54A58,58,0,0,0,7,23.52c.21,1,.47,2,.75,3a12,12,0,0,1,.58,3,22.8,22.8,0,0,1-.76,6.07L5.09,47.74c-.22,1-.38,2-.56,3a11.9,11.9,0,0,0-.33,3.09A16.49,16.49,0,0,0,6,59.78Z"/><path class="cls-12" d="M18.16,69.81c0-1.78-6.39.79-7.43,1.49,1.41,1,3.63-.22,4.76,1.52,1,1.45.08,4.4-.54,5.79C18.53,79,18.26,72.44,18.16,69.81Z"/><path class="cls-13" d="M19.42,66.23c1.85.65,4.31-.17,4.51,2.45.14,1.78-1.84,4.89-2.44,6.63-1.18,3.48-1.88,7.48-6.32,7.47-.39-2.46,1.4-5.66,1.69-8.14.12-1.08.34-2.6-.61-3.22s-4,0-5,0c-2.45,0-4.9-.47-5.54,2.34s-2,6.68-1.43,9.46c-1.54-.67-3-.66-3.86-2.32-.71-1.46-.35-3.24-.17-4.79.42-3.72,1.88-7.24,2.28-10.92.22-1.94-.64-3.67-.68-5.56,0-1.31-.15-1.26.76-2.15A6.24,6.24,0,0,1,4.8,56.29c1,0,1,.18,1.3,1.55a17.31,17.31,0,0,1,.21,3c.05,1.48.06,3,.11,4.44,0-.91,10.1.48,10.8.58A34.42,34.42,0,0,1,18,62.31c.31-1.53.1-4.12,1.72-4.23C25.66,57.71,17.83,65.67,19.42,66.23Z"/><path class="cls-12" d="M18,62.13c.2-.61.45-1.67,0-2.06a6.11,6.11,0,0,0-2.57-.44c.77.32.9,1.16.92,1.91,0,.91.24,2.82-.79,3.18a3.38,3.38,0,0,1-1.38.09A21.63,21.63,0,0,1,9.81,64c-.27-.08-3.36-1.25-3.42-1.19.06.55,0,2,0,2.31C7,65.09,7.54,65,8.11,65a44,44,0,0,1,5.89.51l3.26.3S17.74,63,18,62.13Z"/><polygon class="cls-14" points="6.36 62.78 6.36 62.78 6.36 62.78 6.36 62.78"/><path class="cls-15" d="M4.35,65.44a9.59,9.59,0,0,1,2.06-.38v-1a1,1,0,0,1-.12.16,2,2,0,0,1-1.51.53,1,1,0,0,1-.48-.1.9.9,0,0,1-.39-.75,5.29,5.29,0,0,1,.83-2.33,7.62,7.62,0,0,0,.57-3.37,2.08,2.08,0,0,0-.44-1.4,1,1,0,0,0-.65-.27h0a.67.67,0,0,0-.62.32h0c1.09,1.59.56,3.74,0,5.58a13.35,13.35,0,0,1-1,2.7h0l-.34,1.58a3.72,3.72,0,0,1,.38-.4A5.27,5.27,0,0,1,4.35,65.44Z"/><path class="cls-15" d="M19.88,58.15,19.49,58a1.21,1.21,0,0,0,0,.42c.1.55.26,1.1.39,1.65A3.46,3.46,0,0,1,20,62c-.31.9-1.26,1.36-1.9,2a3.51,3.51,0,0,0-.92,2.68,35.25,35.25,0,0,1-8.65,1.56,2.84,2.84,0,0,1,0,3.09c.09.13.23-.07.33-.2a2.52,2.52,0,0,0,.23-2.64c2-.27,4-.55,5.93-.87a9.36,9.36,0,0,0,4-1.31l-.9-.17a.36.36,0,0,1-.26-.14.41.41,0,0,1,0-.22c.38-1.4,2.2-2,2.65-3.4S19.86,59.56,19.88,58.15Z"/><path class="cls-15" d="M21.73,66.34a19.2,19.2,0,0,1-2.31-.11.6.6,0,0,1-.49,0,2.22,2.22,0,0,0,1.28.2,2.68,2.68,0,0,1,2.43,1.15,3,3,0,0,1,.13,2c-.61,2.86-2.56,5.3-3.22,8.16a20.84,20.84,0,0,1-.45,2,5.13,5.13,0,0,1-2.05,2.65l.39-.13c2-.75,2.74-3.08,3.44-4.86l1.68-4.29a23.72,23.72,0,0,0,1.53-4C24.45,67.3,23.54,66.6,21.73,66.34Z"/><path class="cls-5" d="M4.31,83.22l.17-1.78a10.7,10.7,0,0,0,0-1.79,6,6,0,0,0-.4,1.79A4,4,0,0,0,4.31,83.22Z"/><path class="cls-15" d="M7.47,71.58C1.56,71,5.47,83.25,1.29,82c.46.63,2.36,1,3,1.26-.22-1,.14-4.24.84-7.12C5.69,73.91,6.36,71.82,7.47,71.58Z"/><path class="cls-16" d="M2.69,82.21a3.89,3.89,0,0,1-1.36-2.08A8.33,8.33,0,0,1,1,77.64a25.13,25.13,0,0,1,.73-5c.37-1.66.85-3.3,1.28-5a1.35,1.35,0,0,1,.71-.91,5.86,5.86,0,0,1,1.12-.56,9.12,9.12,0,0,1,2.47-.61,9.49,9.49,0,0,0-2.52.46,6.6,6.6,0,0,0-1.19.52,1.64,1.64,0,0,0-.84,1Q2,70,1.35,72.52a22.52,22.52,0,0,0-.63,5.12,8.21,8.21,0,0,0,.42,2.55A3.91,3.91,0,0,0,2.69,82.21Z"/><path class="cls-17" d="M19,71.5a.2.2,0,0,1,0,.15c0,.63-.14,1.25-.14,1.87a17.47,17.47,0,0,1-.38,2.15,29.31,29.31,0,0,1-1.62,4.77c-.6,1.77-1.33,3.46-1.86,5.29-.18.61-.3,3.22-.77,3.74a5.23,5.23,0,0,0-1.4-3c-.91-.81-.86-1.26-.9-2.49a28.44,28.44,0,0,1-.09-3.44,7.45,7.45,0,0,1,.61-3c.28-.58.72-1.06,1-1.63s.51-1.13.76-1.7a1.88,1.88,0,0,0,.15-1.48,1.4,1.4,0,0,1,.49.9s1.43-.57,1.56-.65a2.56,2.56,0,0,0,1-1.42.32.32,0,0,1,.08-.12h.12a5.88,5.88,0,0,1,1.24,0A.22.22,0,0,1,19,71.5Z"/><path class="cls-18" d="M11.3,74.37a7.07,7.07,0,0,0-1.53,3.2c-.59,2-1.41,7-2.06,9-.53,1.6-.58.85-.88,1.9-.63,2.26-.29,6.43,2.08,7.86,1.19.72,2.9,0,3.93-1a5.23,5.23,0,0,0,.9-1.56,9.26,9.26,0,0,1,.47-1.48c.43,0-.1,1-.1,1.21a3.94,3.94,0,0,0,.13.62,4.57,4.57,0,0,1-.93,2.32,4.35,4.35,0,0,1-4.11,2c-3.52-.41-5-3.91-4.86-6.76a52,52,0,0,1,.47-6.24c.18-1.1.21-2.14.3-3.24a24.1,24.1,0,0,1,.56-2.41,17.57,17.57,0,0,0,0-2.9,4.77,4.77,0,0,1,.67-2.23,9.55,9.55,0,0,0,1.12-3.2,12.7,12.7,0,0,1,2.12-.13h1.89c.06,0,.1.18.13.23A3.38,3.38,0,0,1,11.3,74.37Z"/><ellipse class="cls-2" cx="6.21" cy="90.36" rx="1.23" ry="0.72" transform="translate(-83.85 80.67) rotate(-79.93)"/><path class="cls-2" d="M8.93,69.85a1.7,1.7,0,0,0-.43-1.41,1.71,1.71,0,0,0-1.12-.25,2.4,2.4,0,0,0-1.71.48,2.54,2.54,0,0,0-.46.77.53.53,0,0,1-.06.14,3.79,3.79,0,0,0-.23.61c0,.09.11.33.07.38-.17.23-.86,0-1.15,0-.13,0-.61,0-.57.23a.27.27,0,0,0,.11.15.71.71,0,0,0,.32.1,3.35,3.35,0,0,1,1.76,1.29.33.33,0,0,0,.12.09.34.34,0,0,0,.17,0c.91-.38,2.45-.54,3-1.49a1.47,1.47,0,0,0,.14-.4A2.89,2.89,0,0,0,8.93,69.85Z"/><path class="cls-2" d="M14.38,71.17A17.88,17.88,0,0,0,16.5,72.6a.48.48,0,0,0,.2.07.41.41,0,0,0,.3-.2c.4-.53.5-1.27-.28-1.3C16.4,71.16,14.57,71.17,14.38,71.17Z"/><path class="cls-5" d="M8.93,69.85a1.7,1.7,0,0,0-.43-1.41,1.71,1.71,0,0,0-1.12-.25,2.4,2.4,0,0,0-1.71.48,2.54,2.54,0,0,0-.46.77.53.53,0,0,1-.06.14l.16-.08A5.46,5.46,0,0,1,7,68.8a1.46,1.46,0,0,1,1.54.64c.19.33.17.75.34,1.09A2.89,2.89,0,0,0,8.93,69.85Z"/></symbol></defs><title>WOMAN06</title><path class="cls-19" d="M17.6,106.5c0,5.74,10.74,9.77,22.32,9.1C50,115,57.27,111,57.27,106.5S50,98,39.92,97.4C28.34,96.72,17.6,100.75,17.6,106.5Z" transform="translate(-17.6 -9.43)"/><path class="cls-20" d="M21.27,104.53c0,4.69,8.85,8,18.4,7.42,8.31-.48,14.3-3.78,14.3-7.42s-6-6.94-14.3-7.42C30.12,96.56,21.27,99.84,21.27,104.53Z" transform="translate(-17.6 -9.43)"/><g id="Layer_2" data-name="Layer 2"><g id="Layer_1-2" data-name="Layer 1-2"><use width="24.17" height="98.46" transform="translate(29.77 98.43) rotate(180)" xlink:href="#WOMAN07_2"/></g></g></svg>