<svg id="Layer_1" data-name="Layer 1" xmlns="http://www.w3.org/2000/svg" xmlns:xlink="http://www.w3.org/1999/xlink" viewBox="0 0 39.67 106.62"><defs><style>.cls-1{fill:#875a45;}.cls-2{fill:#f2ddcf;}.cls-3{fill:#cb8c84;}.cls-4{fill:#d18d71;}.cls-5{fill:#313031;}.cls-6{fill:#663614;}.cls-7{fill:#6b7496;}.cls-8{fill:#3e475a;}.cls-9{fill:#989fbc;}.cls-10{fill:none;stroke:#3e475a;stroke-miterlimit:10;stroke-width:0.23px;}.cls-11{fill:#231f20;}.cls-12,.cls-13{fill:#fff;}.cls-12{opacity:0.5;}.cls-13{opacity:0.51;}</style><symbol id="WOMAN61" data-name="WOMAN61" viewBox="0 0 25.64 98.7"><path class="cls-1" d="M10.71,77.36c-1.38,5.09-2.65,10.34-2,15.59a5.71,5.71,0,0,0,.54,2,3.86,3.86,0,0,0,4.07,1.75A5.63,5.63,0,0,0,17,93.9a10.68,10.68,0,0,0,1.22-4.55c.11-1.57,0-3.16.09-4.74.12-3.33.83-6.64.63-10a18,18,0,0,0-1.19-5.46c-.28-.73-1.13-2.92-2.17-2.72-.89.18-1.78,2.44-2.14,3.16A41.7,41.7,0,0,0,10.71,77.36Z"/><path class="cls-2" d="M13.9,79.29c1.11-1.7,2.4-5.79,1.92-7.77.46,3.73.71,5.62.13,7.4-.14.42-.32.83-.42,1.26-.43,1.81.62,3.6,1.62,5.17.12-.38.53-.55.85-.77a4,4,0,0,0,1.25-2.24,20.74,20.74,0,0,0,.78-3.2A17.35,17.35,0,0,0,19.18,72c-.34-1.16-.72-2.31-1.11-3.46a3.92,3.92,0,0,0-1.79-2.6,2.79,2.79,0,0,0-2.77.61,13.59,13.59,0,0,0-1.9,2.3,10.73,10.73,0,0,0-2.21,3.5,7.31,7.31,0,0,0-.14,2.19l.19,6.27c0,1.06-.37,4.3,1.12,2.89A30.08,30.08,0,0,0,13.9,79.29Z"/><path class="cls-3" d="M11.53,78.7a3.69,3.69,0,0,0-.12,1.24,1,1,0,0,0,.43.82.74.74,0,0,0,.72-.14A1.7,1.7,0,0,0,13,80a1.51,1.51,0,0,1-1.49-1.29"/><path class="cls-3" d="M16.53,78.31c-.29,1.1-1.43,3.47-.19,4.38.67.5,2.66-.19,2.32-1.28-3.11,3-1.12-7.25-2-8.94C16,74.14,17,76.47,16.53,78.31Z"/><path class="cls-3" d="M11,77.5c-.13.65-.23,2.42.83,2.54.78.08,1.56-2.38,1.77-2.93a37,37,0,0,0,1.87-7.26c.28,1.42,1.46,5.92,1.62,6.56a17.56,17.56,0,0,0,.5,2.84c1-2.11.65-5,.43-7.28-.08-.82-.44-6.58-1.39-6.52-.64,0-.95,2.21-1.1,2.63a24.84,24.84,0,0,1-1.38,3.33C13.05,73.52,11.43,75.11,11,77.5Z"/><path class="cls-4" d="M13.66,96.19a3.53,3.53,0,0,1-2.62-2,6.89,6.89,0,0,1,.32-6.59,3.55,3.55,0,0,1,2.79-1.8,3,3,0,0,0-1.73.39,4.43,4.43,0,0,0-1.31,1.24,6.7,6.7,0,0,0-.3,6.91A3.41,3.41,0,0,0,13.66,96.19Z"/><path class="cls-1" d="M17.49,5.16a4.45,4.45,0,0,0-.58-2.84,1.8,1.8,0,0,0-2.47-.6l-.14.09c-1.41,1.15-1,4-.85,5.62s.39,3.31.59,5a33.9,33.9,0,0,1-.12,7.6,59.93,59.93,0,0,0-.12,6.67c0,1.66-.2,3.33-.11,5,0,.58-.06.56.41.72a3.85,3.85,0,0,0,1.3-.1,4.89,4.89,0,0,0,1-.1c.64-.26.28.34.59-.58a8.63,8.63,0,0,0,.26-2.16,47.38,47.38,0,0,0-.18-7.9A100.68,100.68,0,0,1,16.84,4c.61.31.63,1.14.64,1.73Z"/><path class="cls-4" d="M15,1.81a2.91,2.91,0,0,0-.92,1.62,8.59,8.59,0,0,0-.18,1.89,36.39,36.39,0,0,0,.32,3.77l.41,3.75a27.62,27.62,0,0,1,.08,3.75c0,1.25-.16,2.5-.28,3.76a36.7,36.7,0,0,0-.1,3.78c0,1.26.1,2.52.07,3.77a34,34,0,0,0,0,3.78c0-1.26.1-2.51.18-3.77s0-2.52,0-3.78a31.44,31.44,0,0,1,.15-3.76c.15-1.25.26-2.5.31-3.77a26.67,26.67,0,0,0-.11-3.79l-.47-3.75c-.16-1.24-.34-2.5-.41-3.74a7.78,7.78,0,0,1,.1-1.87A2.79,2.79,0,0,1,15,1.81Z"/><path class="cls-1" d="M13.71,9c-.38-1.12-3.57-7.86-4.56-4-.39,1.54.33,2.6.77,4a12,12,0,0,1,.39,5.09c-.41,3.14-1.64,6.13-2.25,9.24-.57,2.9-1.08,6.09-.49,9a13.33,13.33,0,0,1,4.32,0,116,116,0,0,0,.19-12.65,36.13,36.13,0,0,1,.27-6,27.5,27.5,0,0,0,.15-6.28,7.88,7.88,0,0,1,.65,2.3,11,11,0,0,1,.61,2.44A5.59,5.59,0,0,0,13.71,9Z"/><path class="cls-4" d="M9.84,5.06a3.62,3.62,0,0,0-.05,1.73,13,13,0,0,0,.53,1.67A10.6,10.6,0,0,1,11,11.84a21.76,21.76,0,0,1-1.15,6.8,47.7,47.7,0,0,0-1.57,6.81,18.88,18.88,0,0,0,0,7,20.57,20.57,0,0,1,.25-6.91c.21-1.14.41-2.29.7-3.4s.62-2.24.94-3.36a21.23,21.23,0,0,0,1.08-6.9,10.93,10.93,0,0,0-.75-3.43A5.23,5.23,0,0,1,9.84,5.06Z"/><path class="cls-1" d="M17.29,7.65h0a.66.66,0,0,1,0-.14v.14Z"/><path class="cls-5" d="M17.43,6.7a4.53,4.53,0,0,1-.11.69.2.2,0,0,0,0,.07v.19h0C17.35,7.36,17.39,7,17.43,6.7Z"/><path class="cls-5" d="M15.11,0h-.22C13,.38,13.23,2.7,13.25,4.7a6.72,6.72,0,0,1-.08,1.52c-.09-.79.19-2.33-.52-3.3A3.38,3.38,0,0,0,9.4,1.7,1.17,1.17,0,0,0,9,2c-1.08,1.1-.37,3.49.19,5.1.06.16.11.33.16.48l.14.4a.45.45,0,0,1,0-.11h0c-.16-2,1.41-2.48,2.73-.94a2.56,2.56,0,0,1,.33.48c.71,1.26.48,2.88,1.27,4.19a.55.55,0,0,0,.09.14l.05.08v-.22h0c0-.33-.07-.76-.11-1.27a.15.15,0,0,1,0-.07V10a.81.81,0,0,0,0-.16,4.25,4.25,0,0,0-.06-.86h0c0-.47-.06-.95-.07-1.42a.08.08,0,0,0,0-.07c0-1.77.07-3.4.67-3.7A3.9,3.9,0,0,1,16.94,4a1,1,0,0,1,.33.25,2.84,2.84,0,0,1,.2,1.48v1C17.86,4,18.52-.3,15.11,0Z"/><path class="cls-6" d="M12.5,7.41c.07.81.08,1.64.07,2.45a23,23,0,0,1-.41,4.9c-.2.86-.48,1.7-.62,2.56a17.24,17.24,0,0,0-.1,3.29,101.41,101.41,0,0,1-.38,11.82,6,6,0,0,0,1.65,0c0-3.38.58-8.47.44-11.89C13.08,19,13,17.42,13,15.89a13.47,13.47,0,0,1,.25-2.2,13.09,13.09,0,0,1,.48-1.5h0v-.55C13,10.29,13.21,8.7,12.5,7.41Z"/><path d="M13.77,11.6V9.94a.81.81,0,0,0,0-.16V9c0-.52-.05-1-.1-1.52a.08.08,0,0,0,0-.07,11.22,11.22,0,0,0-.13-1.3c-.05-.43-.09-.59-.14-.88h0a4.54,4.54,0,0,0-.09-.51,6.72,6.72,0,0,1-.08,1.52c-.09-.79.19-2.33-.52-3.3A3.38,3.38,0,0,0,9.4,1.7a6.23,6.23,0,0,1,2.25,2.42,7.4,7.4,0,0,1,.63,1.76,10.15,10.15,0,0,1,.22,1.48C13.21,8.7,13,10.29,13.77,11.6Z"/><path class="cls-6" d="M17.15,11.3a15.77,15.77,0,0,1,0-2.28,13.72,13.72,0,0,1,.13-1.37V7.46a.2.2,0,0,1,0-.07c0-.58.11-1.16.15-1.72a2.84,2.84,0,0,0-.31-1.48,1,1,0,0,0-.33-.25,2.25,2.25,0,0,1-.07.68,64.17,64.17,0,0,0-.23,10.65c.34,5.64,1.41,11.33.36,16.89a5.52,5.52,0,0,1,1.79.11h.28c-.16-1.08.19-4,.17-4.84a54.1,54.1,0,0,0-.77-8.7A50.37,50.37,0,0,1,17.15,11.3Z"/><path d="M17.43,6.7c.43-2.64,1.09-6.95-2.32-6.64h-.22a3.13,3.13,0,0,1,1.81,2v.06A5.28,5.28,0,0,1,16.81,4a1,1,0,0,1,.33.25,2.84,2.84,0,0,1,.33,1.47c0,.56-.1,1.14-.15,1.72a.2.2,0,0,0,0,.07v.19h0c0-.24.09-.56.13-.9Z"/><path class="cls-7" d="M23.22,45.09c-.16-2.65-1-11.26-1.41-13.86-1.1-1.39-4.13-1-6.2-.9-1.52,0-5.3.55-7.92.83-.85.09-1.57.15-2.07.16-1.62,2.1-.75,6.93-.83,9.38s-.79,6-.88,9.19h0a18.89,18.89,0,0,0,.2,4,9.19,9.19,0,0,0,1.28,3.45c2.07,3.24,4.31,2.51,8,2.57h.83c1.13.06,2,.16,2.76.22,2.35.2,3.15,0,4.63-3.24a16.67,16.67,0,0,0,1-2.84,24.9,24.9,0,0,0,.65-4.58v-.89A33.86,33.86,0,0,0,23.22,45.09Z"/><path class="cls-8" d="M3.91,49.89c1.49-.85,4.22-1.09,7-.61,3.12.53,3.92,6.39,4.33,9.23.14-2.86,0-9.72,3.43-10.15,2.35-.3,3.77-.15,4.57.28v.89a25.92,25.92,0,0,1-.65,4.58c-.36.64-.71,1.26-1,1.82-1.21,2.57-2.81,3.88-4.63,4.26a7.2,7.2,0,0,1-3.59-.25c-2.87-.85-6-3.1-9-5.76l-.28-.26Z"/><path class="cls-7" d="M25.58,75c-.13-2.57-.47-5.11-.81-7.66a8.81,8.81,0,0,0-.86-3.3c-.14-.23-.28-.45-.43-.66s-.17-.24-.25-.37a3.77,3.77,0,0,1-.34-.54,4.71,4.71,0,0,1-.44-1.24,9.89,9.89,0,0,1,.13-3.75A50.66,50.66,0,0,1,24,51.59a1.06,1.06,0,0,0,.07-.63,1,1,0,0,0-.36-.45A5.41,5.41,0,0,0,20.9,49.2h-.27A3.79,3.79,0,0,0,18,50a5.76,5.76,0,0,0-1.56,2.65c-1.33,4.06-1.28,8.42-1.23,12.69a27.28,27.28,0,0,0,.2,3.5,42.78,42.78,0,0,0,1.27,5A64.86,64.86,0,0,1,18,81.11,14.91,14.91,0,0,1,18.16,83c0,.48-.27,1.23,0,1.6,1.84-.92,3.36-2.25,5.37-3a1.92,1.92,0,0,0,.52-.25,1.64,1.64,0,0,0,.38-.55,13.68,13.68,0,0,0,1-2.19A11.19,11.19,0,0,0,25.58,75Z"/><path class="cls-7" d="M14.94,71.7A49.3,49.3,0,0,1,10,84c-2.49-1.64-5.79-1.49-7.2-3.49-1.17-1.68-.8-5.28-1.37-7.24C.8,71.07-.25,67.18.05,66.11c1-3.35,3.31-6.21,3.7-9.5.33-2.78-2.38-4.29.16-6.16,1.42-1,5.65-1,7.09-.22C16.77,53.29,16,66.7,14.94,71.7ZM7.07,65.27a15.86,15.86,0,0,1-.54-2.44c-1.3.84-1.85,5.4-.36,7.71C6.65,71.28,7.09,65.47,7.07,65.27Z"/><path class="cls-8" d="M6.71,70.31c-.42.82-1.12-4.12-1.1-4.91s.89-1.74.9-2.46c0-1.37-1.6-2.83-1.52-4-.17,2.32.46,6.62-2.66,7.46,2,.93,2.67,6.57,2.61,8.36A21.28,21.28,0,0,0,6.71,70.31Z"/><path class="cls-8" d="M23.46,76.22l.42.92c-.1-1-.12-1.94-.15-2.91-.08-3.61-.17-7.21-.25-10.81a8.83,8.83,0,0,1-.59-.91,4.61,4.61,0,0,1-.45-1.24,12.65,12.65,0,0,0-.24,2,38.45,38.45,0,0,0-.3,4.43A21,21,0,0,0,23.46,76.22Z"/><path class="cls-9" d="M7.64,82.5a8.47,8.47,0,0,1,.09-4.33,12,12,0,0,1,2-3.83c.87-1.18,1.86-2.27,2.8-3.41A17.82,17.82,0,0,0,15,67.25a23.37,23.37,0,0,1-2.67,3.51c-1,1.1-2,2.19-2.88,3.37a11.68,11.68,0,0,0-2,4A7.75,7.75,0,0,0,7.64,82.5Z"/><path class="cls-8" d="M20.77,82.81A9.12,9.12,0,0,0,21,78.2a17.6,17.6,0,0,0-1.5-4.4c-1.4-2.77-3.17-5.32-4.28-8.21.93,3,2.76,5.53,4.08,8.31a17.23,17.23,0,0,1,1.55,4.33A9.85,9.85,0,0,1,20.77,82.81Z"/><ellipse class="cls-8" cx="14.57" cy="66.69" rx="0.63" ry="0.5"/><ellipse class="cls-8" cx="14.38" cy="61.36" rx="0.63" ry="0.5"/><path class="cls-10" d="M5.76,59.78c2.78-.46,3.57-1.25,4.87,1.61"/><path class="cls-10" d="M18.39,61.7a7.37,7.37,0,0,1,.24-1.48,1.17,1.17,0,0,1,1.44-.81l.09,0a7.26,7.26,0,0,0,2.06.42"/><path class="cls-8" d="M23.22,45.09c-.16-2.65-1-11.26-1.41-13.86-1.1-1.39-4.13-1-6.2-.9-1.52,0-5.3.55-7.92.83l-.41.11a45,45,0,0,1,7.24-.55,6.31,6.31,0,0,1,3.48.69,6,6,0,0,1,2.2,3.29,26.17,26.17,0,0,1,.51,11.43c-.28,1.08-1.85,2.12-2.89,2.52,1.48.06,4,0,5.46.06v-.1C23.32,47.44,23.28,46.23,23.22,45.09Z"/><path class="cls-8" d="M24.08,51a1,1,0,0,0-.36-.45A5.41,5.41,0,0,0,20.9,49.2h-.27a2.26,2.26,0,0,1,1.11,1.67,6.7,6.7,0,0,1-.08,2.23L21.22,56A12.28,12.28,0,0,0,21,59.5c.07.55.21,1.09.32,1.65A21.86,21.86,0,0,1,21.51,67a6.43,6.43,0,0,0,0,1.86,13.27,13.27,0,0,1,.65,2.09A24.47,24.47,0,0,1,23,63.7c.06-.24.12-.46.19-.69a3.77,3.77,0,0,1-.34-.54,4.71,4.71,0,0,1-.44-1.24,9.89,9.89,0,0,1,.13-3.75A50.66,50.66,0,0,1,24,51.59,1.06,1.06,0,0,0,24.08,51Z"/><path class="cls-9" d="M6.63,31.32A7.71,7.71,0,0,0,5.5,35.84c0,1.57.14,3.14.12,4.69s-.24,3.11-.4,4.67a45.77,45.77,0,0,0-.3,4.69c.13-1.56.36-3.11.57-4.66A43.06,43.06,0,0,0,6,40.54c0-1.59-.17-3.14-.2-4.7a15.1,15.1,0,0,1,.12-2.33A4.88,4.88,0,0,1,6.63,31.32Z"/><path class="cls-9" d="M11,84a13.79,13.79,0,0,0-3.49-1.54,7.66,7.66,0,0,1-3.32-1.69,6.29,6.29,0,0,1-1.13-3.5,36,36,0,0,0-.42-3.82c-.34-1.24-.69-2.46-1-3.7-.14-.62-.28-1.24-.38-1.86A4.79,4.79,0,0,1,1.19,66c.69-2.44,2.1-4.63,2.93-7-1,2.36-2.43,4.48-3.19,7a4.62,4.62,0,0,0,0,2c.1.63.23,1.26.37,1.88.28,1.25.63,2.49,1,3.71a35.8,35.8,0,0,1,.45,3.78,13.76,13.76,0,0,0,.34,1.9A3.9,3.9,0,0,0,4,80.95a7.81,7.81,0,0,0,3.46,1.67A13.92,13.92,0,0,1,11,84Z"/><path class="cls-11" d="M21.89,82.32c-.65.42-1.52.92-2,1.3a2.49,2.49,0,0,0-.86,2.2Q19,88.9,18.8,92c-.17,3.07-2.8,7.47-6.5,6.61-.68-.16-1.16-.59-1.8-.8a2.41,2.41,0,0,1-1.65-1.16A12.12,12.12,0,0,1,7.5,91.55c-.19-2,.46-4,.5-6A6.63,6.63,0,0,0,7.55,83s-.41-1.13-.29-1.18.62.83.71,1c.07-.57-.54-2.12-.3-2.5a1.08,1.08,0,0,0,.21.33c.08,0,0-.89,0-.89a.57.57,0,0,1,.39.18c.29-.28-.12-1.34-.12-1.34s.32.52.34.52A16.06,16.06,0,0,1,9.22,77c.78-.42.18,3,.2,3.25a7.14,7.14,0,0,1,.29-1c.14-.3.52-.59.54-.92a19.42,19.42,0,0,1,.53,1.87,7.94,7.94,0,0,0,0-1.09c0,.53.63,1.19.68,1.83a3.23,3.23,0,0,1-.63,2.31,5.51,5.51,0,0,1,1-1A5.34,5.34,0,0,0,11,84c1.06-.24,1,1,.73,1.2a8.79,8.79,0,0,0-1.31,2,10.88,10.88,0,0,0-1,4.9,5.37,5.37,0,0,0,1.75,3.64c1.19.73,2.57-1,3.58-1.55a4.46,4.46,0,0,0,2.7-2.8,5.51,5.51,0,0,0,.14-2.32c-.13-.73-.62-1.27-.81-2-.43-1.6.69-2.9.66-4.43,0-.68-.11-1.34-.1-2s-.08-2.34,0-3.09c.49,1.14.51,4.42,1,3.32.19-.42.13-1.92.74-.47a5.5,5.5,0,0,1,0,2.52c.39-.13.64-2.14.89-2.47a19.86,19.86,0,0,1,.19,2C21,82,21.25,82.41,21.89,82.32Z"/></symbol></defs><title>WOMAN31</title><path class="cls-12" d="M57.27,106.5c0,5.74-10.74,9.77-22.32,9.1C24.86,115,17.6,111,17.6,106.5S24.86,98,34.95,97.4C46.53,96.72,57.27,100.75,57.27,106.5Z" transform="translate(-17.6 -9.05)"/><path class="cls-13" d="M53.6,104.53c0,4.69-8.85,8-18.4,7.42-8.31-.48-14.3-3.78-14.3-7.42s6-6.94,14.3-7.42C44.75,96.56,53.6,99.84,53.6,104.53Z" transform="translate(-17.6 -9.05)"/><g id="Layer_2" data-name="Layer 2"><g id="Layer_1-2" data-name="Layer 1-2"><use width="25.64" height="98.7" transform="matrix(1, 0, 0, -1, 5.84, 98.6)" xlink:href="#WOMAN61"/></g></g></svg>